<svg width="34" height="34" viewBox="0 0 34 34" fill="none" xmlns="http://www.w3.org/2000/svg">
<path d="M6.26167 29.1536C5.86427 29.1529 5.48544 28.9853 5.21759 28.6917C4.9448 28.4006 4.80926 28.0068 4.84501 27.6094L5.19209 23.7929L21.2259 7.76475L26.2367 12.7741L10.2071 28.8008L6.39059 29.1479C6.34667 29.1522 6.30276 29.1536 6.26167 29.1536ZM27.2368 11.7725L22.2275 6.76317L25.2323 3.75842C25.498 3.4924 25.8586 3.34293 26.2345 3.34293C26.6105 3.34293 26.9711 3.4924 27.2368 3.75842L30.2416 6.76317C30.5076 7.02889 30.6571 7.38946 30.6571 7.76546C30.6571 8.14145 30.5076 8.50203 30.2416 8.76775L27.2383 11.7711L27.2368 11.7725Z" fill="#0B132B"/>
</svg>
