<svg width="51" height="56" viewBox="0 0 51 56" fill="none" xmlns="http://www.w3.org/2000/svg">
<path d="M42.1506 7H8.43016C7.2647 7 6.32263 8.043 6.32263 9.33333V15.3767C6.32263 16.597 6.77154 17.7963 7.55132 18.6597L18.9678 31.2993V49C18.9678 49.8097 19.3471 50.5587 19.9689 50.9857C20.3061 51.2167 20.6896 51.3333 21.0753 51.3333C21.3978 51.3333 21.7202 51.2517 22.0174 51.0883L30.4475 46.4217C31.1619 46.025 31.613 45.2177 31.613 44.3333V31.2993L43.0294 18.6597C43.8092 17.7963 44.2581 16.597 44.2581 15.3767V9.33333C44.2581 8.043 43.316 7 42.1506 7ZM28.0154 28.6837C27.6192 29.12 27.3979 29.7127 27.3979 30.3333V42.8913L23.1828 45.2247V30.3333C23.1828 29.7127 22.9616 29.12 22.5653 28.6837L10.5377 15.3767V11.6667H40.0452L40.0494 15.3603L28.0154 28.6837Z" fill="#1C2541"/>
</svg>
