<svg width="34" height="34" viewBox="0 0 34 34" fill="none" xmlns="http://www.w3.org/2000/svg">
<path d="M28.3333 29.75H5.66666C4.10185 29.75 2.83333 28.4815 2.83333 26.9167V7.08333C2.83333 5.51853 4.10185 4.25 5.66666 4.25H14.1667C14.5424 4.25 14.9026 4.39939 15.1682 4.66508L17.5865 7.08333H28.3333C29.8981 7.08333 31.1667 8.35186 31.1667 9.91667V26.9167C31.1667 28.4815 29.8981 29.75 28.3333 29.75ZM5.66666 9.91667V26.9167H28.3333V9.91667H5.66666ZM18.4167 24.0833H15.5833V19.8333H11.3333V17H15.5833V12.75H18.4167V17H22.6667V19.8333H18.4167V24.0833Z" fill="#0B132B"/>
</svg>
