<svg width="58" height="58" viewBox="0 0 58 58" fill="none" xmlns="http://www.w3.org/2000/svg">
<path d="M45.1361 47.3836L31.3248 33.5699C25.1809 37.9379 16.7147 36.8695 11.8486 31.112C6.98249 25.3545 7.33979 16.8287 12.6706 11.4985C18 6.16599 26.5266 5.80714 32.2852 10.673C38.0438 15.5389 39.1128 24.0058 34.7444 30.1503L48.5557 43.964L45.1385 47.3812L45.1361 47.3836ZM22.9221 12.0833C18.3394 12.0823 14.3857 15.2991 13.4547 19.7863C12.5238 24.2735 14.8715 28.7977 19.0764 30.6197C23.2813 32.4418 28.1877 31.061 30.8252 27.3133C33.4626 23.5656 33.1061 18.481 29.9715 15.138L31.4336 16.588L29.7854 14.9447L29.7564 14.9157C27.9482 13.0963 25.4871 12.0764 22.9221 12.0833Z" fill="#6FFFE9"/>
</svg>
