<svg width="34" height="34" viewBox="0 0 34 34" fill="none" xmlns="http://www.w3.org/2000/svg">
<path d="M24.0833 31.1667H9.91667C8.35186 31.1667 7.08333 29.8982 7.08333 28.3333V9.91668H4.25V7.08334H9.91667V5.66668C9.91667 4.10187 11.1852 2.83334 12.75 2.83334H21.25C22.8148 2.83334 24.0833 4.10187 24.0833 5.66668V7.08334H29.75V9.91668H26.9167V28.3333C26.9167 29.8982 25.6481 31.1667 24.0833 31.1667ZM9.91667 9.91668V28.3333H24.0833V9.91668H9.91667ZM12.75 5.66668V7.08334H21.25V5.66668H12.75ZM21.25 25.5H18.4167V12.75H21.25V25.5ZM15.5833 25.5H12.75V12.75H15.5833V25.5Z" fill="#0B132B"/>
</svg>
